<?xml version="1.0" encoding="utf-8"?>
<!-- Generator: Adobe Illustrator 21.1.0, SVG Export Plug-In . SVG Version: 6.00 Build 0)  -->
<svg version="1.1" id="Layer_1" xmlns="http://www.w3.org/2000/svg" xmlns:xlink="http://www.w3.org/1999/xlink" x="0px" y="0px"
	 viewBox="0 0 143 68.7" style="enable-background:new 0 0 143 68.7;" xml:space="preserve">
<style type="text/css">
	.st0{fill:#1B2023;}
</style>
<title>3d-io-logo-small</title>
<path class="st0" d="M28.3,36.5c-1.6-1.6-3.5-2.9-5.6-3.8c-1.7-0.7-3.4-1.2-5.2-1.5c2.2-3,4.4-6.1,6.7-9c2.6-3.4,5.2-6.9,7.7-10.4
	c0.3-0.4,0.2-1-0.2-1.3c-0.2-0.1-0.4-0.2-0.6-0.2H3.7c-0.5,0-0.9,0.4-0.9,0.9l0,0v3c0,0.5,0.4,0.9,0.9,0.9l0,0h20.1
	c-2.3,3.2-4.6,6.4-7,9.6c-2.6,3.6-5.3,7.3-8.1,11.1c-0.3,0.4-0.2,1,0.2,1.3c0.3,0.2,0.8,0.2,1.1,0c1.3-1,3-1.6,4.6-1.6
	c1.8,0,3.6,0.3,5.3,1.1c1.6,0.7,3.1,1.6,4.4,2.9c1.3,1.2,2.3,2.7,3,4.3c0.7,1.7,1.1,3.4,1.1,5.3c0,1.8-0.4,3.5-1.1,5.2
	c-0.7,1.6-1.7,3.1-3,4.3s-2.8,2.2-4.4,2.9c-1.7,0.7-3.5,1.1-5.3,1.1c-1.9,0-3.7-0.4-5.4-1.3c-1.6-0.8-3-2-4.2-3.4
	c-0.3-0.4-0.9-0.5-1.3-0.1c0,0,0,0-0.1,0.1l-2.3,2.3c-0.4,0.4-0.4,0.9,0,1.3c1.7,1.8,3.7,3.3,6,4.3c2.4,1.1,5,1.7,7.6,1.6
	c2.5,0,4.9-0.5,7.1-1.5c4.4-1.9,7.9-5.4,9.8-9.8c1.9-4.5,1.9-9.6,0.1-14.1C31.1,40,29.9,38.1,28.3,36.5z"/>
<path class="st0" d="M73.9,1.5H71c-0.5,0-0.9,0.4-0.9,0.9v35.8c-0.1-0.2-0.3-0.4-0.5-0.6c-1-1.2-2.1-2.2-3.4-3
	c-1.3-0.9-2.8-1.6-4.3-2.1c-1.7-0.5-3.4-0.8-5.1-0.8c-2.4,0-4.7,0.5-6.9,1.4c-2.1,0.9-4,2.2-5.6,3.7c-1.6,1.6-2.9,3.5-3.8,5.7
	c-1.8,4.5-1.8,9.5,0,14c0.9,2.1,2.1,4,3.7,5.6c1.6,1.6,3.5,2.9,5.6,3.8c2.2,1,4.6,1.4,7,1.4c3.4,0.1,6.7-0.9,9.5-2.8
	c1.5-1,2.8-2.2,3.9-3.6c0,0.3,0,0.6,0,0.9v3.9c0,0.5,0.4,0.9,0.9,0.9H74c0.5,0,0.9-0.4,0.9-0.9V2.5C74.8,1.9,74.4,1.5,73.9,1.5
	L73.9,1.5z M56.9,62.6c-1.8,0-3.5-0.3-5.1-1c-4.8-2-8-6.8-7.9-12c0-1.8,0.3-3.5,1-5.1c1.3-3.1,3.8-5.6,6.9-6.9c3.3-1.3,7-1.3,10.3,0
	c3.1,1.3,5.6,3.8,6.9,6.9c0.7,1.6,1,3.4,1,5.1c0.1,5.2-3.1,10-7.9,12C60.4,62.2,58.7,62.6,56.9,62.6z"/>
<path class="st0" d="M85.4,59.7c-0.9,0-1.8,0.4-2.4,1c-0.7,0.7-1,1.6-1,2.5c0,0.9,0.4,1.8,1,2.5c1.3,1.3,3.5,1.3,4.8,0
	c0.7-0.6,1.1-1.5,1.1-2.5c0-0.9-0.4-1.8-1-2.5C87.2,60.1,86.3,59.7,85.4,59.7z"/>
<path class="st0" d="M98.5,18.6c-0.9,0-1.8,0.4-2.4,1c-0.7,0.7-1,1.6-1,2.5s0.4,1.8,1,2.5c0.6,0.6,1.5,1,2.4,1
	c1.9,0,3.4-1.6,3.4-3.5c0-0.9-0.4-1.8-1-2.5C100.2,19,99.4,18.6,98.5,18.6z"/>
<path class="st0" d="M97,32.5h2.8c0.5,0,0.9,0.4,0.9,0.9v32.3c0,0.5-0.4,0.9-0.9,0.9H97c-0.5,0-0.9-0.4-0.9-0.9V33.4
	C96,32.9,96.4,32.5,97,32.5z"/>
<path class="st0" d="M140.3,42.6L140.3,42.6c-1.8-4.3-5.2-7.7-9.5-9.5c-4.5-1.9-9.5-1.9-14,0c-4.3,1.8-7.7,5.2-9.5,9.5
	c-1.9,4.5-1.9,9.5,0,14c0.9,2.1,2.2,4,3.8,5.6c1.6,1.6,3.5,2.9,5.7,3.8s4.6,1.4,7,1.4s4.8-0.5,7.1-1.4c2.1-0.9,4-2.2,5.7-3.8
	c1.6-1.6,2.9-3.5,3.8-5.6c0.9-2.2,1.4-4.6,1.4-6.9C141.8,47.2,141.3,44.8,140.3,42.6z M123.8,62.6c-7.2,0-13-5.9-13-13.1
	c0-1.7,0.4-3.4,1-5c0.7-1.6,1.6-3,2.8-4.2c1.2-1.2,2.6-2.1,4.1-2.8c3.3-1.3,6.9-1.3,10.2,0c3.1,1.3,5.6,3.8,7,7
	c1.3,3.3,1.3,6.9,0,10.2c-0.7,1.5-1.6,2.9-2.8,4.1c-1.2,1.2-2.6,2.1-4.2,2.8C127.3,62.2,125.5,62.6,123.8,62.6z"/>
</svg>
