<svg xmlns="http://www.w3.org/2000/svg" viewBox="0 0 82.563 95.6"><defs><style>.a{fill:#1b2023;}.b,.c,.d{fill:none;stroke:#fff;}.b{stroke-width:2px;}.d{stroke-linecap:round;}</style></defs><title>icon-home-staging-ai</title><path class="a" d="M81.125,69.423a4.294,4.294,0,0,1-2.053,3.429L43.178,92.1a4.869,4.869,0,0,1-4.106,0L3.178,72.854a4.294,4.294,0,0,1-2.053-3.43V23.877a4.294,4.294,0,0,1,2.053-3.43L39.072,1.205a4.869,4.869,0,0,1,4.106,0L79.072,20.447a4.294,4.294,0,0,1,2.053,3.429Z"/><path class="b" d="M15.125,32.325,41,18.325l25.875,14V60.544H15.125Z"/><path class="c" d="M39.847,46.607V43.445a2,2,0,0,1,2.092-1.894H56.88a2,2,0,0,1,2.092,1.894v3.8"/><path class="c" d="M57.985,48.557V51a1.685,1.685,0,0,1-1.676,1.693H42.566A1.685,1.685,0,0,1,40.89,51V48.557A1.7,1.7,0,0,0,39.2,46.851h-.45a1.7,1.7,0,0,0-1.689,1.705v6.436A1.7,1.7,0,0,0,38.751,56.7H60.124a1.7,1.7,0,0,0,1.689-1.705V48.557a1.7,1.7,0,0,0-1.689-1.705h-.45A1.7,1.7,0,0,0,57.985,48.557Z"/><path class="c" d="M40.972,57.223h0a.563.563,0,0,1,.563.563v.874a.563.563,0,0,1-.563.563h0a.563.563,0,0,1-.563-.563v-.874A.563.563,0,0,1,40.972,57.223Z"/><path class="c" d="M58.916,57.223h0a.563.563,0,0,1,.563.563v.874a.563.563,0,0,1-.563.563h0a.563.563,0,0,1-.563-.563v-.874A.563.563,0,0,1,58.916,57.223Z"/><path class="d" d="M19.621,49.7H30.878"/><path class="d" d="M20.223,49.658l10.055,9.453"/><path class="d" d="M30.277,49.658,20.223,59.111"/></svg>