<svg xmlns="http://www.w3.org/2000/svg" viewBox="0 0 82.563 95.6"><defs><style>.a{fill:#99b7c6;}.b,.c,.d{fill:none;stroke:#fff;}.c{stroke-linecap:square;}.d{stroke-width:2px;}</style></defs><title>icon-material-library</title><path class="a" d="M81.25,70.61A4.294,4.294,0,0,1,79.2,74.039L43.3,93.281a4.869,4.869,0,0,1-4.106,0L3.3,74.04A4.294,4.294,0,0,1,1.25,70.61V25.063A4.294,4.294,0,0,1,3.3,21.633L39.2,2.392a4.869,4.869,0,0,1,4.106,0L79.2,21.633a4.294,4.294,0,0,1,2.053,3.429Z"/><polyline class="b" points="41.328 64.843 18.186 64.843 18.186 39.652 32.382 39.652 32.382 25.983 58.397 25.983 58.397 48.555"/><path class="c" d="M32.262,39.727V64.866"/><path class="c" d="M45.965,26.424V49.353"/><path class="c" d="M32.737,39.652H58.311"/><path class="c" d="M18.627,52.88H41.556"/><polyline class="d" points="42.183 61.53 39.351 63.664 52.74 73.506 66.687 63.717 64.138 61.258"/><polyline class="d" points="42.183 57.121 39.351 59.255 52.74 69.097 66.687 59.307 64.138 56.848"/><polygon class="d" points="53.371 44.502 39.351 54.625 52.74 64.467 66.687 54.677 53.371 44.502"/></svg>