<svg xmlns="http://www.w3.org/2000/svg" viewBox="0 0 82.563 95.6"><defs><style>.a{fill:#99b7c6;}.b,.c{fill:none;stroke:#fff;stroke-width:2px;}.c{stroke-linecap:square;}</style></defs><title>icon-storage</title><path class="a" d="M81.25,70.236A4.294,4.294,0,0,1,79.2,73.665L43.3,92.908a4.869,4.869,0,0,1-4.106,0L3.3,73.666a4.294,4.294,0,0,1-2.053-3.43V24.689A4.294,4.294,0,0,1,3.3,21.259L39.2,2.018a4.869,4.869,0,0,1,4.106,0L79.2,21.259a4.294,4.294,0,0,1,2.053,3.429Z"/><path class="b" d="M42.707,21.259l-10.727,6.2a.8.8,0,0,0-.123.07c-.105.14-.14.21-.14.262C31.7,27.822,31.7,40.04,31.7,40.04L21.218,46.1a.278.278,0,0,0-.123.07.616.616,0,0,0-.14.262c-.017.035-.017,12.515-.017,12.515a.54.54,0,0,0,.246.438l10.674,6.144c.1.07.1.07.123.07.1.035.122.052.14.052a.522.522,0,0,0,.315-.07c.017,0,10.517-6.055,10.517-6.055l10.411,6c.1.07.122.07.122.07a.457.457,0,0,1,.14.052.586.586,0,0,0,.333-.07c.017,0,10.762-6.2,10.762-6.2a.539.539,0,0,0,.246-.438V46.465a.524.524,0,0,0-.088-.21.41.41,0,0,0-.157-.157L54.2,40.041V27.823a.38.38,0,0,0-.088-.193.839.839,0,0,0-.157-.175L43.2,21.26a.555.555,0,0,0-.334-.054A.827.827,0,0,0,42.707,21.259Z"/><polyline class="b" points="54.293 27.746 43.071 34.246 31.848 27.767"/><polyline class="b" points="43.382 46.451 32.16 52.95 20.937 46.471"/><polyline class="b" points="65.204 46.451 53.981 52.95 42.759 46.471"/><polyline class="b" points="54.293 40.216 43.071 46.715 31.848 40.236"/><path class="c" d="M43.071,34.365V59.543"/><path class="c" d="M53.67,52.685l.282,12.987"/><path class="c" d="M32.16,52.685V65.191"/></svg>