<svg xmlns="http://www.w3.org/2000/svg" viewBox="0 0 82.563 95.6"><defs><style>.a{fill:#99b7c6;}.b,.c{fill:none;stroke:#fff;stroke-miterlimit:10;}.c{stroke-width:2px;}</style></defs><title>icon-bake-lightmaps</title><path class="a" d="M81.375,69.423a4.294,4.294,0,0,1-2.053,3.429L43.428,92.1a4.869,4.869,0,0,1-4.106,0L3.428,72.854a4.294,4.294,0,0,1-2.053-3.43V23.877a4.294,4.294,0,0,1,2.053-3.43L39.322,1.205a4.869,4.869,0,0,1,4.106,0L79.322,20.447a4.294,4.294,0,0,1,2.053,3.429Z"/><circle class="b" cx="41.907" cy="46.451" r="10.51"/><line class="c" x1="41.907" y1="31.736" x2="41.907" y2="23.328"/><line class="c" x1="41.907" y1="69.573" x2="41.907" y2="61.165"/><line class="c" x1="56.621" y1="46.451" x2="65.029" y2="46.451"/><line class="c" x1="18.784" y1="46.451" x2="27.192" y2="46.451"/><line class="c" x1="52.255" y1="36.102" x2="58.238" y2="30.119"/><line class="c" x1="25.575" y1="62.782" x2="31.558" y2="56.799"/><line class="c" x1="52.255" y1="56.799" x2="58.238" y2="62.782"/><line class="c" x1="25.575" y1="30.119" x2="31.558" y2="36.102"/></svg>