<svg xmlns="http://www.w3.org/2000/svg" viewBox="0 0 82.563 95.6"><defs><style>.a{fill:#99b7c6;}.b,.c,.d,.e{fill:none;stroke:#fff;}.b,.d{stroke-width:2px;}.d,.e{stroke-linecap:square;}</style></defs><title>icon-convert-floor-plans-to-3d</title><path class="a" d="M81.25,70.808A4.294,4.294,0,0,1,79.2,74.237L43.3,93.479a4.869,4.869,0,0,1-4.106,0L3.3,74.238a4.294,4.294,0,0,1-2.053-3.43V25.261A4.294,4.294,0,0,1,3.3,21.831L39.2,2.59a4.869,4.869,0,0,1,4.106,0L79.2,21.831A4.294,4.294,0,0,1,81.25,25.26Z"/><polygon class="b" points="21.312 24.975 65.562 24.975 65.562 48.062 51.658 48.062 51.658 69.225 21.312 69.225 21.312 24.975"/><polygon class="c" points="28.722 33.347 57.191 33.347 57.191 48.353 48.245 48.353 48.245 61.815 28.722 61.815 28.722 33.347"/><path class="d" d="M51.614,48.062H21.793"/><path class="d" d="M40.552,46.619V25.434"/><path class="e" d="M21.793,25.456l7.293,8.489"/><path class="e" d="M56.593,33.945l8.489-8.489"/><path class="e" d="M29.086,61.451l-7.293,7.293"/><path class="d" d="M48.221,61.451l3.393,7.293"/></svg>