<svg xmlns="http://www.w3.org/2000/svg" viewBox="0 0 82.563 95.6"><defs><style>.a{fill:#1b2023;}.b,.c,.d,.e{fill:none;stroke:#fff;}.b,.c{stroke-width:2px;}.c,.d{stroke-linecap:square;}</style></defs><title>icon-3d-editor</title><path class="a" d="M81.125,70.61a4.294,4.294,0,0,1-2.053,3.429L43.178,93.281a4.869,4.869,0,0,1-4.106,0L3.178,74.04a4.294,4.294,0,0,1-2.053-3.43V25.063a4.294,4.294,0,0,1,2.053-3.43L39.072,2.392a4.869,4.869,0,0,1,4.106,0L79.072,21.633a4.294,4.294,0,0,1,2.053,3.429Z"/><polygon class="b" points="25.5 41.061 25.5 55.965 40.824 65.661 56.147 55.965 56.147 41.061 40.824 31.8 25.5 41.061"/><polyline class="b" points="25.5 40.965 40.824 50.661 56.147 40.965"/><path class="c" d="M41,50.833V65.3"/><path class="d" d="M41,32.3v-8"/><circle class="e" cx="41" cy="21.3" r="2.5"/><circle class="e" cx="69" cy="61.3" r="2.5"/><circle class="e" cx="15" cy="61.3" r="2.5"/><path class="d" d="M56,56.3l10,4"/><path class="d" d="M25,56.3l-8,4"/><polyline class="e" points="58.236 35.545 61.249 37.527 61.249 41.412"/><polyline class="e" points="44.04 69.468 40.906 71.252 37.444 69.489"/><polyline class="e" points="23.249 35.545 20.236 37.527 20.236 41.412"/></svg>