<svg xmlns="http://www.w3.org/2000/svg" viewBox="0 0 82.563 95.6"><defs><style>.a{fill:#1b2023;}.b,.c{fill:none;stroke:#fff;stroke-miterlimit:10;}.b{stroke-width:2px;}</style></defs><title>icon-a-frame-components</title><path class="a" d="M81.125,70.963a4.294,4.294,0,0,1-2.053,3.429L43.178,93.634a4.869,4.869,0,0,1-4.106,0L3.178,74.393a4.294,4.294,0,0,1-2.053-3.43V25.416a4.294,4.294,0,0,1,2.053-3.43L39.072,2.745a4.869,4.869,0,0,1,4.106,0L79.072,21.986a4.294,4.294,0,0,1,2.053,3.429Z"/><path class="b" d="M65.13,46.549V56.872c0,2.706-1.3,4.109-4.009,4.109H48.794a2.945,2.945,0,0,1-3.107-2.205c-.7-2-1.4-3.909-2.1-5.914a3.162,3.162,0,0,0-6.114-.1c-.8,2.1-1.7,4.109-2.506,6.214a2.691,2.691,0,0,1-2.806,2H19.828a3.481,3.481,0,0,1-3.809-3.809V36.225c0-2.406,1.4-3.809,3.909-3.809H61.321q3.909,0,3.909,3.911C65.13,39.633,65.13,43.041,65.13,46.549Z"/><path class="c" d="M51.1,52.863a5.305,5.305,0,0,0,5.411-5.2q0-.057,0-.114a5.463,5.463,0,1,0-10.925-.1A5.682,5.682,0,0,0,51.1,52.863Z"/><path class="c" d="M29.95,52.863a5.413,5.413,0,0,0,.226-10.823H30.05a5.413,5.413,0,0,0-.1,10.825Z"/></svg>