<svg xmlns="http://www.w3.org/2000/svg" viewBox="0 0 82.563 95.6"><defs><style>.a{fill:#99b7c6;}.b,.c{fill:none;stroke:#fff;}.c{stroke-linecap:square;stroke-width:2px;}</style></defs><title>icon-export-3d-models</title><path class="a" d="M81.375,70.963a4.294,4.294,0,0,1-2.053,3.429L43.428,93.634a4.869,4.869,0,0,1-4.106,0L3.428,74.393a4.294,4.294,0,0,1-2.053-3.43V25.416a4.294,4.294,0,0,1,2.053-3.43L39.322,2.745a4.869,4.869,0,0,1,4.106,0L79.322,21.986a4.294,4.294,0,0,1,2.053,3.429Z"/><path class="b" d="M37.835,55.407c-3.829,0-11.337.087-11.337.087-.072,0-1.713-.021-2.255-.087-3.418-.414-6.095-4.3-6.095-8.84,0-5.024,3.461-9.111,7.714-9.111a6.125,6.125,0,0,1,.8.056,10.876,10.876,0,0,1,12.188-5.87,10.477,10.477,0,0,1,8.957-5.587c5.553,0,10.255,5.057,10.791,11.558,3.459.739,6.1,4.234,6.314,8.4.014.16.022.337.023.526,0,.3-.012.556-.033.807-.006.089-.013.182-.022.274-.415,4.156-2.991,7.429-6.129,7.806-.255.03-11.781-.027-12.237-.018"/><path class="c" d="M42.051,43.775V68.642"/><path class="c" d="M49.762,62.449l-7.711,6.193"/><path class="c" d="M34.34,62.449l7.711,6.193"/></svg>