<svg xmlns="http://www.w3.org/2000/svg" viewBox="0 0 82.563 95.6"><defs><style>.a{fill:#99b7c6;}.b{fill:none;stroke:#fff;stroke-width:2px;}</style></defs><title>icon-import-matterport-scans</title><path class="a" d="M81.375,70.61a4.294,4.294,0,0,1-2.053,3.429L43.428,93.281a4.869,4.869,0,0,1-4.106,0L3.428,74.04a4.294,4.294,0,0,1-2.053-3.43V25.063a4.294,4.294,0,0,1,2.053-3.43L39.322,2.392a4.869,4.869,0,0,1,4.106,0L79.322,21.633a4.294,4.294,0,0,1,2.053,3.429Z"/><polygon class="b" points="41.16 24.237 21.195 35.069 21.195 58.035 36.877 67.192 36.877 44.652 49.509 37.326 49.509 28.183 41.16 24.237"/><polygon class="b" points="53.491 30.76 53.491 40.573 41.553 47.798 41.553 70.097 61.584 58.535 61.584 35.03 53.491 30.76"/></svg>