<svg xmlns="http://www.w3.org/2000/svg" viewBox="0 0 82.563 95.6"><defs><style>.a{fill:#1b2023;}.b,.c,.d,.e{fill:none;stroke:#fff;}.b,.e{stroke-width:2px;}.d,.e{stroke-linecap:square;}.f{fill:#fff;}</style></defs><title>icon-app-creator</title><path class="a" d="M81.125,70.233a4.294,4.294,0,0,1-2.053,3.429L43.178,92.9a4.869,4.869,0,0,1-4.106,0L3.178,73.663a4.294,4.294,0,0,1-2.053-3.43V24.686a4.294,4.294,0,0,1,2.053-3.43L39.072,2.014a4.869,4.869,0,0,1,4.106,0L79.072,21.256a4.294,4.294,0,0,1,2.053,3.429Z"/><rect class="b" x="16" y="26.5" width="49" height="39" rx="2" ry="2"/><polygon class="c" points="37.5 42.637 37.5 51.579 46.892 57.397 56.284 51.579 56.284 42.637 46.892 37.08 37.5 42.637"/><polyline class="c" points="37.5 42.579 46.892 48.397 56.284 42.579"/><path class="d" d="M47,48.5v8"/><path class="e" d="M17,31.5H65"/><path class="e" d="M29,31.5v33"/><circle class="f" cx="18.5" cy="29" r="1"/><circle class="f" cx="21.5" cy="29" r="1"/><circle class="f" cx="24.5" cy="29" r="1"/></svg>