<svg xmlns="http://www.w3.org/2000/svg" viewBox="0 0 82.563 95.6"><defs><style>.a{fill:#99b7c6;}.b,.c{fill:none;stroke:#fff;}.c{stroke-linecap:square;stroke-width:2px;}</style></defs><title>icon-publish-3d-models</title><path class="a" d="M81.375,70.233a4.294,4.294,0,0,1-2.053,3.429L43.428,92.9a4.869,4.869,0,0,1-4.106,0L3.428,73.663a4.294,4.294,0,0,1-2.053-3.43V24.686a4.294,4.294,0,0,1,2.053-3.43L39.322,2.014a4.869,4.869,0,0,1,4.106,0L79.322,21.256a4.294,4.294,0,0,1,2.053,3.429Z"/><path class="b" d="M35.561,57.491c-3.988,0-9.69.09-9.69.09-.075,0-1.784-.022-2.349-.09-3.56-.431-6.348-4.477-6.348-9.209,0-5.233,3.6-9.491,8.035-9.491a6.381,6.381,0,0,1,.835.059,11.329,11.329,0,0,1,12.7-6.115,10.913,10.913,0,0,1,9.33-5.82c5.785,0,10.682,5.268,11.24,12.039,3.6.77,6.354,4.411,6.577,8.749.014.166.023.351.024.548,0,.313-.013.579-.034.841-.006.093-.014.19-.023.286-.432,4.329-3.116,7.739-6.384,8.131-.266.032-10.152-.028-10.628-.019"/><path class="c" d="M42.072,68.583V43.7"/><path class="c" d="M33.925,50.248,42.072,43.7"/><path class="c" d="M50.22,50.248,42.072,43.7"/></svg>