<svg xmlns="http://www.w3.org/2000/svg" viewBox="0 0 82.563 95.6"><defs><style>.a{fill:#99b7c6;}.b,.c,.d,.e{fill:none;stroke:#fff;}.b,.c{stroke-width:2px;}.c,.d{stroke-linecap:square;}</style></defs><title>icon-scene-library</title><path class="a" d="M81.25,70.963A4.294,4.294,0,0,1,79.2,74.392L43.3,93.634a4.869,4.869,0,0,1-4.106,0L3.3,74.393a4.294,4.294,0,0,1-2.053-3.43V25.416A4.294,4.294,0,0,1,3.3,21.986L39.2,2.745a4.869,4.869,0,0,1,4.106,0L79.2,21.986a4.294,4.294,0,0,1,2.053,3.429Z"/><polygon class="b" points="64.937 59.792 64.937 37.892 41.704 23.645 18.472 37.892 18.472 59.792 41.704 73.4 64.937 59.792"/><polyline class="b" points="64.937 59.933 41.704 45.686 18.472 59.933"/><path class="c" d="M41.437,45.411V23.9"/><path class="d" d="M25.437,62.9l21-14"/><path class="d" d="M30.437,66.9l22-15"/><path class="d" d="M36.437,69.9l22-14"/><path class="d" d="M23.437,56.9l23,13"/><path class="d" d="M29.437,52.9l23,13"/><path class="d" d="M35.437,49.9l23,13"/><path class="e" d="M27.437,39.677l8-4.989V49.15l-8,5.317Z"/><path class="e" d="M46.437,34.247l12.877,7.1v7.984L46.437,41.606Z"/></svg>