<svg xmlns="http://www.w3.org/2000/svg" viewBox="0 0 82.563 95.6"><defs><style>.a{fill:#99b7c6;}.b,.c,.d,.e{fill:none;stroke:#fff;}.b,.c{stroke-width:2px;}.c,.d{stroke-linecap:square;}.f{fill:#fff;}</style></defs><title>icon-furniture-library</title><path class="a" d="M81.25,70.233A4.294,4.294,0,0,1,79.2,73.662L43.3,92.9a4.869,4.869,0,0,1-4.106,0L3.3,73.663a4.294,4.294,0,0,1-2.053-3.43V24.686A4.294,4.294,0,0,1,3.3,21.256L39.2,2.014a4.869,4.869,0,0,1,4.106,0L79.2,21.256a4.294,4.294,0,0,1,2.053,3.429Z"/><rect class="b" x="21.873" y="42.773" width="22.362" height="26.089"/><path class="c" d="M15.351,68.862H67.6"/><path class="c" d="M21.873,51.159H44.235"/><path class="c" d="M33.054,51.159v17.7"/><path class="d" d="M56.348,67.93V38.114"/><path class="e" d="M49.7,24.138H62.069l4.348,13.045H45.348Z"/><path class="d" d="M61.939,38.114v4.659"/><circle class="f" cx="33.054" cy="47.432" r="1.398"/><circle class="f" cx="29.327" cy="60.476" r="1.398"/><circle class="f" cx="36.781" cy="60.476" r="1.398"/></svg>