<svg xmlns="http://www.w3.org/2000/svg" viewBox="0 0 82.563 95.6"><defs><style>.a{fill:#99b7c6;}.b,.c,.d{fill:none;stroke:#fff;}.c{stroke-linecap:square;}.d{stroke-width:2px;}</style></defs><title>icon-modify-3d</title><path class="a" d="M81.375,70.808a4.294,4.294,0,0,1-2.053,3.429L43.428,93.479a4.869,4.869,0,0,1-4.106,0L3.428,74.238a4.294,4.294,0,0,1-2.053-3.43V25.261a4.294,4.294,0,0,1,2.053-3.43L39.322,2.59a4.869,4.869,0,0,1,4.106,0L79.322,21.831a4.294,4.294,0,0,1,2.053,3.429Z"/><polygon class="b" points="29.792 39.409 29.792 50.82 41.525 58.244 53.257 50.82 53.257 39.409 41.525 32.319 29.792 39.409"/><polyline class="b" points="29.792 39.336 41.525 46.759 53.257 39.336"/><path class="c" d="M41.66,46.891V57.967"/><path class="d" d="M36.956,69.226l4.862.926,4.862-.926V64.542a.765.765,0,0,1,.545-.733,18.809,18.809,0,0,0,3.451-1.429.767.767,0,0,1,.9.133l3.311,3.311,4.093-2.783,2.783-4.093-3.313-3.311a.765.765,0,0,1-.133-.9,18.7,18.7,0,0,0,1.429-3.451.765.765,0,0,1,.733-.545h4.683l.926-4.862-.926-4.862H60.484a.765.765,0,0,1-.733-.545,18.81,18.81,0,0,0-1.429-3.451.765.765,0,0,1,.133-.9L61.766,32.8l-2.783-4.093L54.89,25.925,51.58,29.239a.765.765,0,0,1-.9.133,18.7,18.7,0,0,0-3.451-1.429.765.765,0,0,1-.545-.733V22.526L41.818,21.6l-4.862.926v4.683a.765.765,0,0,1-.545.733,18.81,18.81,0,0,0-3.451,1.429.766.766,0,0,1-.9-.133l-3.311-3.311L24.651,28.71,21.868,32.8l3.311,3.311a.765.765,0,0,1,.133.9,18.7,18.7,0,0,0-1.429,3.451.765.765,0,0,1-.733.545H18.468l-.926,4.861.926,4.862h4.683a.765.765,0,0,1,.733.545,18.81,18.81,0,0,0,1.429,3.451.765.765,0,0,1-.133.9l-3.311,3.311,2.783,4.093,4.093,2.783,3.311-3.311a.768.768,0,0,1,.9-.133,18.7,18.7,0,0,0,3.451,1.429.765.765,0,0,1,.545.733v4.683Z"/></svg>